<mxfile host="app.diagrams.net" modified="2024-03-01T11:58:24.803Z" agent="Mozilla/5.0 (Windows NT 10.0; Win64; x64) AppleWebKit/537.36 (KHTML, like Gecko) Chrome/122.0.0.0 Safari/537.36" etag="F5geUYwfJY_VL0wvqRfJ" version="23.1.7" type="device">
  <diagram id="C5RBs43oDa-KdzZeNtuy" name="Page-1">
    <mxGraphModel dx="989" dy="514" grid="1" gridSize="10" guides="1" tooltips="1" connect="1" arrows="1" fold="1" page="1" pageScale="1" pageWidth="827" pageHeight="1169" math="0" shadow="0">
      <root>
        <mxCell id="WIyWlLk6GJQsqaUBKTNV-0" />
        <mxCell id="WIyWlLk6GJQsqaUBKTNV-1" parent="WIyWlLk6GJQsqaUBKTNV-0" />
        <mxCell id="GhlGxq6gx5H_YgF2LxDl-320" value="" style="ellipse;whiteSpace=wrap;html=1;" vertex="1" parent="WIyWlLk6GJQsqaUBKTNV-1">
          <mxGeometry x="151" y="150" width="525" height="350" as="geometry" />
        </mxCell>
        <mxCell id="GhlGxq6gx5H_YgF2LxDl-321" value="" style="ellipse;whiteSpace=wrap;html=1;" vertex="1" parent="WIyWlLk6GJQsqaUBKTNV-1">
          <mxGeometry x="297.5" y="207.5" width="352.5" height="235" as="geometry" />
        </mxCell>
        <mxCell id="GhlGxq6gx5H_YgF2LxDl-322" value="" style="ellipse;whiteSpace=wrap;html=1;aspect=fixed;" vertex="1" parent="WIyWlLk6GJQsqaUBKTNV-1">
          <mxGeometry x="440" y="235" width="180" height="180" as="geometry" />
        </mxCell>
        <mxCell id="GhlGxq6gx5H_YgF2LxDl-323" value="&lt;font style=&quot;font-size: 18px;&quot;&gt;cost()&lt;/font&gt;" style="text;html=1;align=center;verticalAlign=middle;whiteSpace=wrap;rounded=0;" vertex="1" parent="WIyWlLk6GJQsqaUBKTNV-1">
          <mxGeometry x="460" y="290" width="60" height="30" as="geometry" />
        </mxCell>
        <mxCell id="GhlGxq6gx5H_YgF2LxDl-324" value="&lt;font style=&quot;font-size: 18px;&quot;&gt;cost()&lt;/font&gt;" style="text;html=1;align=center;verticalAlign=middle;whiteSpace=wrap;rounded=0;" vertex="1" parent="WIyWlLk6GJQsqaUBKTNV-1">
          <mxGeometry x="310" y="290" width="60" height="30" as="geometry" />
        </mxCell>
        <mxCell id="GhlGxq6gx5H_YgF2LxDl-325" value="&lt;font style=&quot;font-size: 18px;&quot;&gt;cost()&lt;/font&gt;" style="text;html=1;align=center;verticalAlign=middle;whiteSpace=wrap;rounded=0;" vertex="1" parent="WIyWlLk6GJQsqaUBKTNV-1">
          <mxGeometry x="160" y="290" width="60" height="30" as="geometry" />
        </mxCell>
        <mxCell id="GhlGxq6gx5H_YgF2LxDl-326" value="&lt;span style=&quot;font-size: 18px;&quot;&gt;&lt;b&gt;DarkRoast&lt;/b&gt;&lt;/span&gt;" style="text;html=1;align=center;verticalAlign=middle;whiteSpace=wrap;rounded=0;" vertex="1" parent="WIyWlLk6GJQsqaUBKTNV-1">
          <mxGeometry x="480" y="350" width="110" height="30" as="geometry" />
        </mxCell>
        <mxCell id="GhlGxq6gx5H_YgF2LxDl-327" value="&lt;span style=&quot;font-size: 18px;&quot;&gt;&lt;b&gt;Mocha&lt;/b&gt;&lt;/span&gt;" style="text;html=1;align=center;verticalAlign=middle;whiteSpace=wrap;rounded=0;" vertex="1" parent="WIyWlLk6GJQsqaUBKTNV-1">
          <mxGeometry x="350" y="380" width="110" height="30" as="geometry" />
        </mxCell>
        <mxCell id="GhlGxq6gx5H_YgF2LxDl-328" value="&lt;span style=&quot;font-size: 18px;&quot;&gt;&lt;b&gt;Whip&lt;/b&gt;&lt;/span&gt;" style="text;html=1;align=center;verticalAlign=middle;whiteSpace=wrap;rounded=0;" vertex="1" parent="WIyWlLk6GJQsqaUBKTNV-1">
          <mxGeometry x="220" y="410" width="110" height="30" as="geometry" />
        </mxCell>
        <mxCell id="GhlGxq6gx5H_YgF2LxDl-330" value="" style="curved=1;endArrow=classic;html=1;rounded=0;" edge="1" parent="WIyWlLk6GJQsqaUBKTNV-1">
          <mxGeometry width="50" height="50" relative="1" as="geometry">
            <mxPoint x="360" y="295" as="sourcePoint" />
            <mxPoint x="470" y="295" as="targetPoint" />
            <Array as="points">
              <mxPoint x="370" y="275" />
              <mxPoint x="460" y="275" />
            </Array>
          </mxGeometry>
        </mxCell>
        <mxCell id="GhlGxq6gx5H_YgF2LxDl-331" value="" style="curved=1;endArrow=classic;html=1;rounded=0;" edge="1" parent="WIyWlLk6GJQsqaUBKTNV-1">
          <mxGeometry width="50" height="50" relative="1" as="geometry">
            <mxPoint x="470" y="318" as="sourcePoint" />
            <mxPoint x="360" y="318" as="targetPoint" />
            <Array as="points">
              <mxPoint x="460" y="338" />
              <mxPoint x="370" y="338" />
            </Array>
          </mxGeometry>
        </mxCell>
        <mxCell id="GhlGxq6gx5H_YgF2LxDl-333" value="" style="curved=1;endArrow=classic;html=1;rounded=0;" edge="1" parent="WIyWlLk6GJQsqaUBKTNV-1">
          <mxGeometry width="50" height="50" relative="1" as="geometry">
            <mxPoint x="209" y="295" as="sourcePoint" />
            <mxPoint x="319" y="295" as="targetPoint" />
            <Array as="points">
              <mxPoint x="219" y="275" />
              <mxPoint x="309" y="275" />
            </Array>
          </mxGeometry>
        </mxCell>
        <mxCell id="GhlGxq6gx5H_YgF2LxDl-334" value="" style="curved=1;endArrow=classic;html=1;rounded=0;" edge="1" parent="WIyWlLk6GJQsqaUBKTNV-1">
          <mxGeometry width="50" height="50" relative="1" as="geometry">
            <mxPoint x="171" y="318" as="sourcePoint" />
            <mxPoint x="61" y="318" as="targetPoint" />
            <Array as="points">
              <mxPoint x="161" y="338" />
              <mxPoint x="71" y="338" />
            </Array>
          </mxGeometry>
        </mxCell>
        <mxCell id="GhlGxq6gx5H_YgF2LxDl-335" value="" style="curved=1;endArrow=classic;html=1;rounded=0;" edge="1" parent="WIyWlLk6GJQsqaUBKTNV-1">
          <mxGeometry width="50" height="50" relative="1" as="geometry">
            <mxPoint x="319" y="318" as="sourcePoint" />
            <mxPoint x="209" y="318" as="targetPoint" />
            <Array as="points">
              <mxPoint x="309" y="338" />
              <mxPoint x="219" y="338" />
            </Array>
          </mxGeometry>
        </mxCell>
        <mxCell id="GhlGxq6gx5H_YgF2LxDl-336" value=".20" style="text;html=1;align=center;verticalAlign=middle;whiteSpace=wrap;rounded=0;" vertex="1" parent="WIyWlLk6GJQsqaUBKTNV-1">
          <mxGeometry x="230" y="310" width="60" height="30" as="geometry" />
        </mxCell>
        <mxCell id="GhlGxq6gx5H_YgF2LxDl-337" value=".99" style="text;html=1;align=center;verticalAlign=middle;whiteSpace=wrap;rounded=0;" vertex="1" parent="WIyWlLk6GJQsqaUBKTNV-1">
          <mxGeometry x="384" y="310" width="60" height="30" as="geometry" />
        </mxCell>
        <mxCell id="GhlGxq6gx5H_YgF2LxDl-338" value=".10" style="text;html=1;align=center;verticalAlign=middle;whiteSpace=wrap;rounded=0;" vertex="1" parent="WIyWlLk6GJQsqaUBKTNV-1">
          <mxGeometry x="80" y="310" width="60" height="30" as="geometry" />
        </mxCell>
        <mxCell id="GhlGxq6gx5H_YgF2LxDl-339" value="$1.29" style="text;html=1;align=center;verticalAlign=middle;whiteSpace=wrap;rounded=0;" vertex="1" parent="WIyWlLk6GJQsqaUBKTNV-1">
          <mxGeometry x="30" y="290" width="60" height="30" as="geometry" />
        </mxCell>
        <mxCell id="GhlGxq6gx5H_YgF2LxDl-340" value="" style="curved=1;endArrow=classic;html=1;rounded=0;" edge="1" parent="WIyWlLk6GJQsqaUBKTNV-1">
          <mxGeometry width="50" height="50" relative="1" as="geometry">
            <mxPoint x="110" y="200" as="sourcePoint" />
            <mxPoint x="170" y="300" as="targetPoint" />
            <Array as="points">
              <mxPoint x="100" y="230" />
              <mxPoint x="110" y="280" />
            </Array>
          </mxGeometry>
        </mxCell>
        <mxCell id="GhlGxq6gx5H_YgF2LxDl-341" value="&lt;font style=&quot;font-size: 10px;&quot;&gt;1. 呼叫最外層裝飾器Whip的cost()&lt;/font&gt;" style="rounded=1;whiteSpace=wrap;html=1;fillColor=#f5f5f5;fontColor=#333333;strokeColor=#666666;" vertex="1" parent="WIyWlLk6GJQsqaUBKTNV-1">
          <mxGeometry x="30" y="170" width="160" height="30" as="geometry" />
        </mxCell>
        <mxCell id="GhlGxq6gx5H_YgF2LxDl-342" value="&lt;font style=&quot;font-size: 10px;&quot;&gt;2. Whip呼叫Mocha的cost()&lt;/font&gt;" style="rounded=1;whiteSpace=wrap;html=1;fillColor=#f5f5f5;fontColor=#333333;strokeColor=#666666;" vertex="1" parent="WIyWlLk6GJQsqaUBKTNV-1">
          <mxGeometry x="190" y="240" width="130" height="30" as="geometry" />
        </mxCell>
        <mxCell id="GhlGxq6gx5H_YgF2LxDl-343" value="&lt;font style=&quot;font-size: 10px;&quot;&gt;3. Mocha呼叫DarkRoast的cost()&lt;/font&gt;" style="rounded=1;whiteSpace=wrap;html=1;fillColor=#f5f5f5;fontColor=#333333;strokeColor=#666666;" vertex="1" parent="WIyWlLk6GJQsqaUBKTNV-1">
          <mxGeometry x="338.5" y="240" width="151" height="30" as="geometry" />
        </mxCell>
        <mxCell id="GhlGxq6gx5H_YgF2LxDl-344" value="&lt;span style=&quot;font-size: 10px;&quot;&gt;4. DarkRoast回傳價格99美分&lt;/span&gt;" style="rounded=1;whiteSpace=wrap;html=1;fillColor=#f5f5f5;fontColor=#333333;strokeColor=#666666;" vertex="1" parent="WIyWlLk6GJQsqaUBKTNV-1">
          <mxGeometry x="343" y="343" width="142" height="30" as="geometry" />
        </mxCell>
        <mxCell id="GhlGxq6gx5H_YgF2LxDl-345" value="&lt;span style=&quot;font-size: 10px;&quot;&gt;5. Mocha將回傳結果加上&lt;br&gt;自己的價格後回傳總價&lt;/span&gt;" style="rounded=1;whiteSpace=wrap;html=1;fillColor=#f5f5f5;fontColor=#333333;strokeColor=#666666;" vertex="1" parent="WIyWlLk6GJQsqaUBKTNV-1">
          <mxGeometry x="190" y="343" width="130" height="30" as="geometry" />
        </mxCell>
        <mxCell id="GhlGxq6gx5H_YgF2LxDl-346" value="&lt;span style=&quot;font-size: 10px;&quot;&gt;6. Whip將回傳結果加上&lt;br&gt;自己的價格後回傳總額&lt;br&gt;&lt;/span&gt;" style="rounded=1;whiteSpace=wrap;html=1;fillColor=#f5f5f5;fontColor=#333333;strokeColor=#666666;" vertex="1" parent="WIyWlLk6GJQsqaUBKTNV-1">
          <mxGeometry x="21" y="343" width="130" height="30" as="geometry" />
        </mxCell>
      </root>
    </mxGraphModel>
  </diagram>
</mxfile>
